<svg width="1440" height="100" viewBox="0 0 1440 100" fill="none" xmlns="http://www.w3.org/2000/svg">
<rect width="1440" height="100" fill="#202024"/>
<path opacity="0.5" d="M752.067 20.4105L736.388 75.9541C736.308 76.2062 735.989 76.2819 735.803 76.1054L725.306 66.1464L733.172 38.3115C733.252 38.0594 733.013 37.8325 732.747 37.9081L703.409 45.3711L692.965 35.4625C692.779 35.286 692.859 34.9834 693.125 34.9078L751.642 20.0071C751.908 19.9567 752.147 20.1836 752.067 20.4105Z" fill="#00B37E"/>
<path opacity="0.5" d="M725.306 66.1459L721.266 80.5171C721.187 80.7693 720.868 80.8449 720.682 80.6684L688.101 49.7828C687.915 49.6063 687.995 49.3038 688.261 49.2282L703.408 45.3706L725.306 66.1459Z" fill="#00B37E"/>
<path d="M733.171 38.311L725.305 66.1459L703.408 45.3706L732.746 37.9076C733.012 37.832 733.251 38.0589 733.171 38.311Z" fill="#00B37E"/>
</svg>
