<svg width="1440" height="180" viewBox="0 0 1440 180" fill="none" xmlns="http://www.w3.org/2000/svg">
<rect width="1440" height="180" fill="#202024"/>
<path opacity="0.5" d="M754.983 57.4484L737.856 118.121C737.769 118.396 737.421 118.479 737.218 118.286L725.751 107.408L734.344 77.0024C734.431 76.727 734.17 76.4792 733.879 76.5618L701.832 84.7139L690.424 73.8903C690.22 73.6975 690.307 73.367 690.598 73.2844L754.519 57.0078C754.809 56.9527 755.07 57.2005 754.983 57.4484Z" fill="#00B37E"/>
<path opacity="0.5" d="M725.751 107.407L721.338 123.105C721.251 123.381 720.903 123.463 720.7 123.271L685.111 89.533C684.908 89.3402 684.995 89.0098 685.285 88.9271L701.831 84.7134L725.751 107.407Z" fill="#00B37E"/>
<path d="M734.342 77.002L725.75 107.407L701.83 84.7134L733.878 76.5613C734.168 76.4787 734.429 76.7266 734.342 77.002Z" fill="#00B37E"/>
</svg>
