<svg width="1440" height="180" viewBox="0 0 1440 180" fill="none" xmlns="http://www.w3.org/2000/svg">
<rect width="1440" height="180" fill="#202024"/>
<path opacity="0.5" d="M756.982 54.4804L738.632 119.487C738.538 119.782 738.165 119.87 737.947 119.664L725.662 108.008L734.868 75.4312C734.962 75.1361 734.682 74.8705 734.371 74.959L700.034 83.6934L687.811 72.0968C687.593 71.8902 687.687 71.5361 687.998 71.4476L756.484 54.0083C756.795 53.9493 757.075 54.2149 756.982 54.4804Z" fill="#00B37E"/>
<path opacity="0.5" d="M725.661 108.008L720.934 124.827C720.841 125.122 720.467 125.211 720.25 125.004L682.119 88.8568C681.901 88.6502 681.994 88.2961 682.305 88.2076L700.033 83.6929L725.661 108.008Z" fill="#00B37E"/>
<path d="M734.867 75.4306L725.661 108.008L700.033 83.6929L734.369 74.9585C734.68 74.8699 734.96 75.1355 734.867 75.4306Z" fill="#00B37E"/>
</svg>
